<mxfile host="app.diagrams.net" modified="2020-10-03T13:13:53.551Z" agent="5.0 (X11; Linux x86_64) AppleWebKit/537.36 (KHTML, like Gecko) Chrome/84.0.4147.105 Safari/537.36" etag="EeI34qy8Hp2vKUfTS59z" version="13.7.7" type="github">
  <diagram id="ROfdTWYHBuPpPeZg7fQ4" name="Page-1">
    <mxGraphModel dx="1422" dy="802" grid="0" gridSize="10" guides="1" tooltips="1" connect="1" arrows="1" fold="1" page="1" pageScale="1" pageWidth="827" pageHeight="1169" math="0" shadow="0">
      <root>
        <mxCell id="0" />
        <mxCell id="1" parent="0" />
        <mxCell id="-_ES3_ouW1XL9XXZqm64-3" value="Conversation" style="rounded=0;whiteSpace=wrap;html=1;fontStyle=1" parent="1" vertex="1">
          <mxGeometry x="66" y="191" width="80" height="40" as="geometry" />
        </mxCell>
        <mxCell id="-_ES3_ouW1XL9XXZqm64-4" value="Course" style="rounded=0;whiteSpace=wrap;html=1;fontStyle=1" parent="1" vertex="1">
          <mxGeometry x="196" y="623" width="80" height="40" as="geometry" />
        </mxCell>
        <mxCell id="-_ES3_ouW1XL9XXZqm64-6" value="Comment" style="rounded=0;whiteSpace=wrap;html=1;fontStyle=1" parent="1" vertex="1">
          <mxGeometry x="326" y="471" width="80" height="40" as="geometry" />
        </mxCell>
        <mxCell id="-_ES3_ouW1XL9XXZqm64-7" value="Tag" style="rounded=0;whiteSpace=wrap;html=1;fontStyle=1" parent="1" vertex="1">
          <mxGeometry x="686" y="623" width="80" height="40" as="geometry" />
        </mxCell>
        <mxCell id="-_ES3_ouW1XL9XXZqm64-9" value="tagsList" style="rhombus;whiteSpace=wrap;html=1;" parent="1" vertex="1">
          <mxGeometry x="666" y="111" width="120" height="40" as="geometry" />
        </mxCell>
        <mxCell id="-_ES3_ouW1XL9XXZqm64-10" value="" style="endArrow=none;html=1;exitX=0.5;exitY=1;exitDx=0;exitDy=0;entryX=0.5;entryY=0;entryDx=0;entryDy=0;" parent="1" source="-_ES3_ouW1XL9XXZqm64-9" target="-_ES3_ouW1XL9XXZqm64-7" edge="1">
          <mxGeometry width="50" height="50" relative="1" as="geometry">
            <mxPoint x="346" y="1121" as="sourcePoint" />
            <mxPoint x="326" y="1021" as="targetPoint" />
          </mxGeometry>
        </mxCell>
        <mxCell id="-_ES3_ouW1XL9XXZqm64-12" value="" style="endArrow=none;html=1;exitX=1;exitY=0.5;exitDx=0;exitDy=0;entryX=0;entryY=0.5;entryDx=0;entryDy=0;" parent="1" source="-_ES3_ouW1XL9XXZqm64-143" target="-_ES3_ouW1XL9XXZqm64-9" edge="1">
          <mxGeometry width="50" height="50" relative="1" as="geometry">
            <mxPoint x="136" y="991" as="sourcePoint" />
            <mxPoint x="176" y="1071" as="targetPoint" />
          </mxGeometry>
        </mxCell>
        <mxCell id="-_ES3_ouW1XL9XXZqm64-28" value="Message" style="rounded=0;whiteSpace=wrap;html=1;fontStyle=1" parent="1" vertex="1">
          <mxGeometry x="66" y="411" width="80" height="40" as="geometry" />
        </mxCell>
        <mxCell id="-_ES3_ouW1XL9XXZqm64-30" value="scoreCourse&lt;br&gt;author" style="rhombus;whiteSpace=wrap;html=1;" parent="1" vertex="1">
          <mxGeometry x="176" y="445" width="120" height="60" as="geometry" />
        </mxCell>
        <mxCell id="-_ES3_ouW1XL9XXZqm64-32" value="" style="endArrow=none;html=1;exitX=0.5;exitY=1;exitDx=0;exitDy=0;entryX=0.5;entryY=0;entryDx=0;entryDy=0;" parent="1" source="-_ES3_ouW1XL9XXZqm64-143" target="-_ES3_ouW1XL9XXZqm64-30" edge="1">
          <mxGeometry width="50" height="50" relative="1" as="geometry">
            <mxPoint x="86" y="1071" as="sourcePoint" />
            <mxPoint x="436" y="531" as="targetPoint" />
          </mxGeometry>
        </mxCell>
        <mxCell id="-_ES3_ouW1XL9XXZqm64-35" value="scoreComment&lt;br&gt;author" style="rhombus;whiteSpace=wrap;html=1;" parent="1" vertex="1">
          <mxGeometry x="306" y="341" width="120" height="70" as="geometry" />
        </mxCell>
        <mxCell id="-_ES3_ouW1XL9XXZqm64-37" value="" style="endArrow=none;html=1;exitX=0.75;exitY=1;exitDx=0;exitDy=0;entryX=0.5;entryY=0;entryDx=0;entryDy=0;" parent="1" source="-_ES3_ouW1XL9XXZqm64-143" target="-_ES3_ouW1XL9XXZqm64-35" edge="1">
          <mxGeometry width="50" height="50" relative="1" as="geometry">
            <mxPoint x="86" y="1121" as="sourcePoint" />
            <mxPoint x="126" y="1201" as="targetPoint" />
          </mxGeometry>
        </mxCell>
        <mxCell id="-_ES3_ouW1XL9XXZqm64-62" value="expeditor" style="rhombus;whiteSpace=wrap;html=1;" parent="1" vertex="1">
          <mxGeometry x="166" y="241" width="110" height="60" as="geometry" />
        </mxCell>
        <mxCell id="-_ES3_ouW1XL9XXZqm64-63" value="" style="endArrow=none;html=1;exitX=0.5;exitY=0;exitDx=0;exitDy=0;entryX=0.5;entryY=0;entryDx=0;entryDy=0;" parent="1" source="-_ES3_ouW1XL9XXZqm64-62" target="-_ES3_ouW1XL9XXZqm64-143" edge="1">
          <mxGeometry width="50" height="50" relative="1" as="geometry">
            <mxPoint x="326" y="521" as="sourcePoint" />
            <mxPoint x="276" y="391" as="targetPoint" />
          </mxGeometry>
        </mxCell>
        <mxCell id="-_ES3_ouW1XL9XXZqm64-64" value="" style="endArrow=classic;html=1;exitX=1;exitY=0;exitDx=0;exitDy=0;entryX=0.5;entryY=1;entryDx=0;entryDy=0;endFill=1;fillColor=#000000;strokeWidth=3;" parent="1" source="-_ES3_ouW1XL9XXZqm64-28" target="-_ES3_ouW1XL9XXZqm64-62" edge="1">
          <mxGeometry width="50" height="50" relative="1" as="geometry">
            <mxPoint x="116" y="391" as="sourcePoint" />
            <mxPoint x="156" y="471" as="targetPoint" />
          </mxGeometry>
        </mxCell>
        <mxCell id="-_ES3_ouW1XL9XXZqm64-67" value="messageList&lt;br&gt;destination" style="rhombus;whiteSpace=wrap;html=1;" parent="1" vertex="1">
          <mxGeometry x="41" y="281" width="130" height="60" as="geometry" />
        </mxCell>
        <mxCell id="-_ES3_ouW1XL9XXZqm64-68" value="" style="endArrow=none;html=1;exitX=0.5;exitY=0;exitDx=0;exitDy=0;entryX=0.5;entryY=1;entryDx=0;entryDy=0;" parent="1" source="-_ES3_ouW1XL9XXZqm64-67" target="-_ES3_ouW1XL9XXZqm64-3" edge="1">
          <mxGeometry width="50" height="50" relative="1" as="geometry">
            <mxPoint x="326" y="571" as="sourcePoint" />
            <mxPoint x="276" y="441" as="targetPoint" />
          </mxGeometry>
        </mxCell>
        <mxCell id="-_ES3_ouW1XL9XXZqm64-69" value="" style="endArrow=classic;html=1;exitX=0.5;exitY=0;exitDx=0;exitDy=0;entryX=0.5;entryY=1;entryDx=0;entryDy=0;endFill=1;fillColor=#000000;strokeWidth=3;" parent="1" source="-_ES3_ouW1XL9XXZqm64-28" target="-_ES3_ouW1XL9XXZqm64-67" edge="1">
          <mxGeometry width="50" height="50" relative="1" as="geometry">
            <mxPoint x="116" y="441" as="sourcePoint" />
            <mxPoint x="156" y="521" as="targetPoint" />
          </mxGeometry>
        </mxCell>
        <mxCell id="-_ES3_ouW1XL9XXZqm64-87" value="participants" style="rhombus;whiteSpace=wrap;html=1;" parent="1" vertex="1">
          <mxGeometry x="51" y="101" width="110" height="60" as="geometry" />
        </mxCell>
        <mxCell id="-_ES3_ouW1XL9XXZqm64-88" value="" style="endArrow=none;html=1;exitX=0.5;exitY=1;exitDx=0;exitDy=0;entryX=0.5;entryY=0;entryDx=0;entryDy=0;" parent="1" source="-_ES3_ouW1XL9XXZqm64-87" target="-_ES3_ouW1XL9XXZqm64-3" edge="1">
          <mxGeometry width="50" height="50" relative="1" as="geometry">
            <mxPoint x="326" y="691" as="sourcePoint" />
            <mxPoint x="276" y="561" as="targetPoint" />
          </mxGeometry>
        </mxCell>
        <mxCell id="-_ES3_ouW1XL9XXZqm64-89" value="" style="endArrow=none;html=1;exitX=0;exitY=0.5;exitDx=0;exitDy=0;strokeWidth=3;entryX=1;entryY=0.5;entryDx=0;entryDy=0;" parent="1" source="-_ES3_ouW1XL9XXZqm64-143" target="-_ES3_ouW1XL9XXZqm64-87" edge="1">
          <mxGeometry width="50" height="50" relative="1" as="geometry">
            <mxPoint x="116" y="561" as="sourcePoint" />
            <mxPoint x="156" y="641" as="targetPoint" />
          </mxGeometry>
        </mxCell>
        <mxCell id="-_ES3_ouW1XL9XXZqm64-103" value="" style="endArrow=classic;html=1;exitX=0.5;exitY=0;exitDx=0;exitDy=0;entryX=0.5;entryY=1;entryDx=0;entryDy=0;endFill=1;strokeWidth=3;" parent="1" source="-_ES3_ouW1XL9XXZqm64-4" target="-_ES3_ouW1XL9XXZqm64-30" edge="1">
          <mxGeometry width="50" height="50" relative="1" as="geometry">
            <mxPoint x="476" y="351" as="sourcePoint" />
            <mxPoint x="516" y="431" as="targetPoint" />
          </mxGeometry>
        </mxCell>
        <mxCell id="-_ES3_ouW1XL9XXZqm64-111" value="commentsListCourse" style="rhombus;whiteSpace=wrap;html=1;" parent="1" vertex="1">
          <mxGeometry x="256" y="531" width="140" height="56" as="geometry" />
        </mxCell>
        <mxCell id="-_ES3_ouW1XL9XXZqm64-112" value="" style="endArrow=none;html=1;exitX=0.5;exitY=0;exitDx=0;exitDy=0;entryX=0.5;entryY=1;entryDx=0;entryDy=0;" parent="1" source="-_ES3_ouW1XL9XXZqm64-111" target="-_ES3_ouW1XL9XXZqm64-6" edge="1">
          <mxGeometry width="50" height="50" relative="1" as="geometry">
            <mxPoint x="786" y="951" as="sourcePoint" />
            <mxPoint x="736" y="821" as="targetPoint" />
          </mxGeometry>
        </mxCell>
        <mxCell id="-_ES3_ouW1XL9XXZqm64-113" value="" style="endArrow=none;html=1;exitX=0.75;exitY=0;exitDx=0;exitDy=0;entryX=0;entryY=1;entryDx=0;entryDy=0;" parent="1" source="-_ES3_ouW1XL9XXZqm64-4" target="-_ES3_ouW1XL9XXZqm64-111" edge="1">
          <mxGeometry width="50" height="50" relative="1" as="geometry">
            <mxPoint x="576" y="821" as="sourcePoint" />
            <mxPoint x="276" y="598" as="targetPoint" />
          </mxGeometry>
        </mxCell>
        <mxCell id="-_ES3_ouW1XL9XXZqm64-141" value="" style="endArrow=classic;html=1;exitX=0.5;exitY=0;exitDx=0;exitDy=0;entryX=0.5;entryY=1;entryDx=0;entryDy=0;endFill=1;strokeWidth=3;" parent="1" source="-_ES3_ouW1XL9XXZqm64-6" target="-_ES3_ouW1XL9XXZqm64-35" edge="1">
          <mxGeometry width="50" height="50" relative="1" as="geometry">
            <mxPoint x="476" y="590.71" as="sourcePoint" />
            <mxPoint x="516" y="590.71" as="targetPoint" />
          </mxGeometry>
        </mxCell>
        <mxCell id="-_ES3_ouW1XL9XXZqm64-143" value="User" style="rounded=0;whiteSpace=wrap;html=1;fontStyle=1" parent="1" vertex="1">
          <mxGeometry x="306" y="111" width="80" height="40" as="geometry" />
        </mxCell>
        <mxCell id="-_ES3_ouW1XL9XXZqm64-144" value="Location" style="rounded=0;whiteSpace=wrap;html=1;fontStyle=1" parent="1" vertex="1">
          <mxGeometry x="596" y="311" width="80" height="40" as="geometry" />
        </mxCell>
        <mxCell id="-_ES3_ouW1XL9XXZqm64-145" value="owner" style="rhombus;whiteSpace=wrap;html=1;" parent="1" vertex="1">
          <mxGeometry x="576" y="191" width="120" height="40" as="geometry" />
        </mxCell>
        <mxCell id="-_ES3_ouW1XL9XXZqm64-146" value="" style="endArrow=none;html=1;exitX=0;exitY=0;exitDx=0;exitDy=0;entryX=1;entryY=1;entryDx=0;entryDy=0;sketch=0;fontStyle=0;labelBorderColor=none;rounded=1;strokeWidth=1;" parent="1" source="-_ES3_ouW1XL9XXZqm64-145" target="-_ES3_ouW1XL9XXZqm64-143" edge="1">
          <mxGeometry width="50" height="50" relative="1" as="geometry">
            <mxPoint x="526" y="961" as="sourcePoint" />
            <mxPoint x="476" y="831" as="targetPoint" />
          </mxGeometry>
        </mxCell>
        <mxCell id="-_ES3_ouW1XL9XXZqm64-147" value="" style="endArrow=classic;html=1;entryX=0.5;entryY=1;entryDx=0;entryDy=0;endFill=1;exitX=0.5;exitY=0;exitDx=0;exitDy=0;" parent="1" source="-_ES3_ouW1XL9XXZqm64-144" target="-_ES3_ouW1XL9XXZqm64-145" edge="1">
          <mxGeometry width="50" height="50" relative="1" as="geometry">
            <mxPoint x="286" y="831" as="sourcePoint" />
            <mxPoint x="326" y="911" as="targetPoint" />
          </mxGeometry>
        </mxCell>
        <mxCell id="-_ES3_ouW1XL9XXZqm64-148" value="scoreLocation" style="rhombus;whiteSpace=wrap;html=1;" parent="1" vertex="1">
          <mxGeometry x="486" y="221" width="120" height="40" as="geometry" />
        </mxCell>
        <mxCell id="-_ES3_ouW1XL9XXZqm64-149" value="" style="endArrow=none;html=1;exitX=0;exitY=0;exitDx=0;exitDy=0;entryX=1;entryY=1;entryDx=0;entryDy=0;" parent="1" source="-_ES3_ouW1XL9XXZqm64-148" target="-_ES3_ouW1XL9XXZqm64-143" edge="1">
          <mxGeometry width="50" height="50" relative="1" as="geometry">
            <mxPoint x="526" y="1011" as="sourcePoint" />
            <mxPoint x="476" y="831" as="targetPoint" />
          </mxGeometry>
        </mxCell>
        <mxCell id="-_ES3_ouW1XL9XXZqm64-150" value="" style="endArrow=none;html=1;exitX=0.5;exitY=0;exitDx=0;exitDy=0;entryX=1;entryY=1;entryDx=0;entryDy=0;" parent="1" source="-_ES3_ouW1XL9XXZqm64-144" target="-_ES3_ouW1XL9XXZqm64-148" edge="1">
          <mxGeometry width="50" height="50" relative="1" as="geometry">
            <mxPoint x="286" y="831" as="sourcePoint" />
            <mxPoint x="196" y="871" as="targetPoint" />
          </mxGeometry>
        </mxCell>
        <mxCell id="a2yF3g0EI68pY8QH5IYY-1" value="tagsList&lt;br&gt;locationsList" style="rhombus;whiteSpace=wrap;html=1;" parent="1" vertex="1">
          <mxGeometry x="576" y="435" width="120" height="80" as="geometry" />
        </mxCell>
        <mxCell id="a2yF3g0EI68pY8QH5IYY-2" value="" style="endArrow=none;html=1;exitX=0.5;exitY=1;exitDx=0;exitDy=0;entryX=0;entryY=0;entryDx=0;entryDy=0;" parent="1" source="a2yF3g0EI68pY8QH5IYY-1" target="-_ES3_ouW1XL9XXZqm64-7" edge="1">
          <mxGeometry width="50" height="50" relative="1" as="geometry">
            <mxPoint x="516" y="1041" as="sourcePoint" />
            <mxPoint x="466" y="911" as="targetPoint" />
          </mxGeometry>
        </mxCell>
        <mxCell id="a2yF3g0EI68pY8QH5IYY-3" value="" style="endArrow=none;html=1;exitX=0.5;exitY=1;exitDx=0;exitDy=0;entryX=0.5;entryY=0;entryDx=0;entryDy=0;" parent="1" source="-_ES3_ouW1XL9XXZqm64-144" target="a2yF3g0EI68pY8QH5IYY-1" edge="1">
          <mxGeometry width="50" height="50" relative="1" as="geometry">
            <mxPoint x="306" y="911" as="sourcePoint" />
            <mxPoint x="346" y="991" as="targetPoint" />
          </mxGeometry>
        </mxCell>
        <mxCell id="a2yF3g0EI68pY8QH5IYY-6" value="" style="endArrow=none;html=1;exitX=0;exitY=0.5;exitDx=0;exitDy=0;entryX=1;entryY=0.5;entryDx=0;entryDy=0;" parent="1" source="a2yF3g0EI68pY8QH5IYY-8" target="-_ES3_ouW1XL9XXZqm64-4" edge="1">
          <mxGeometry width="50" height="50" relative="1" as="geometry">
            <mxPoint x="466" y="1001" as="sourcePoint" />
            <mxPoint x="596" y="841" as="targetPoint" />
          </mxGeometry>
        </mxCell>
        <mxCell id="a2yF3g0EI68pY8QH5IYY-7" value="" style="endArrow=none;html=1;exitX=0;exitY=0.5;exitDx=0;exitDy=0;entryX=1;entryY=0.5;entryDx=0;entryDy=0;" parent="1" source="-_ES3_ouW1XL9XXZqm64-7" target="a2yF3g0EI68pY8QH5IYY-8" edge="1">
          <mxGeometry width="50" height="50" relative="1" as="geometry">
            <mxPoint x="436" y="841" as="sourcePoint" />
            <mxPoint x="386" y="1001" as="targetPoint" />
          </mxGeometry>
        </mxCell>
        <mxCell id="a2yF3g0EI68pY8QH5IYY-8" value="tagsList&lt;br&gt;coursesList" style="rhombus;whiteSpace=wrap;html=1;" parent="1" vertex="1">
          <mxGeometry x="424" y="603" width="120" height="80" as="geometry" />
        </mxCell>
        <mxCell id="W4c6wrDPUM8pkUNdPMfN-3" value="commentsListLocation" style="rhombus;whiteSpace=wrap;html=1;" vertex="1" parent="1">
          <mxGeometry x="426" y="371" width="140" height="74" as="geometry" />
        </mxCell>
        <mxCell id="W4c6wrDPUM8pkUNdPMfN-4" value="" style="endArrow=none;html=1;entryX=0;entryY=1;entryDx=0;entryDy=0;exitX=1;exitY=0;exitDx=0;exitDy=0;" edge="1" parent="1" source="W4c6wrDPUM8pkUNdPMfN-3" target="-_ES3_ouW1XL9XXZqm64-144">
          <mxGeometry width="50" height="50" relative="1" as="geometry">
            <mxPoint x="386" y="491" as="sourcePoint" />
            <mxPoint x="436" y="441" as="targetPoint" />
          </mxGeometry>
        </mxCell>
        <mxCell id="W4c6wrDPUM8pkUNdPMfN-5" value="" style="endArrow=none;html=1;entryX=0;entryY=1;entryDx=0;entryDy=0;exitX=1;exitY=0.5;exitDx=0;exitDy=0;" edge="1" parent="1" source="-_ES3_ouW1XL9XXZqm64-6" target="W4c6wrDPUM8pkUNdPMfN-3">
          <mxGeometry width="50" height="50" relative="1" as="geometry">
            <mxPoint x="386" y="491" as="sourcePoint" />
            <mxPoint x="436" y="441" as="targetPoint" />
          </mxGeometry>
        </mxCell>
        <mxCell id="W4c6wrDPUM8pkUNdPMfN-6" value="locationList" style="rhombus;whiteSpace=wrap;html=1;" vertex="1" parent="1">
          <mxGeometry x="436" y="505" width="140" height="74" as="geometry" />
        </mxCell>
        <mxCell id="W4c6wrDPUM8pkUNdPMfN-7" value="" style="endArrow=none;html=1;entryX=0;entryY=1;entryDx=0;entryDy=0;exitX=1;exitY=0.25;exitDx=0;exitDy=0;jumpSize=6;strokeWidth=3;" edge="1" parent="1" source="-_ES3_ouW1XL9XXZqm64-4" target="W4c6wrDPUM8pkUNdPMfN-6">
          <mxGeometry width="50" height="50" relative="1" as="geometry">
            <mxPoint x="386" y="491" as="sourcePoint" />
            <mxPoint x="436" y="441" as="targetPoint" />
          </mxGeometry>
        </mxCell>
        <mxCell id="W4c6wrDPUM8pkUNdPMfN-8" value="" style="endArrow=none;html=1;strokeWidth=1;entryX=0.25;entryY=1;entryDx=0;entryDy=0;exitX=1;exitY=0;exitDx=0;exitDy=0;" edge="1" parent="1" source="W4c6wrDPUM8pkUNdPMfN-6" target="-_ES3_ouW1XL9XXZqm64-144">
          <mxGeometry width="50" height="50" relative="1" as="geometry">
            <mxPoint x="386" y="431" as="sourcePoint" />
            <mxPoint x="436" y="381" as="targetPoint" />
          </mxGeometry>
        </mxCell>
        <mxCell id="W4c6wrDPUM8pkUNdPMfN-9" value="" style="endArrow=none;html=1;strokeWidth=3;" edge="1" parent="1">
          <mxGeometry width="50" height="50" relative="1" as="geometry">
            <mxPoint x="80" y="760" as="sourcePoint" />
            <mxPoint x="160" y="760" as="targetPoint" />
          </mxGeometry>
        </mxCell>
        <mxCell id="W4c6wrDPUM8pkUNdPMfN-14" value="Must have" style="edgeLabel;html=1;align=center;verticalAlign=middle;resizable=0;points=[];" vertex="1" connectable="0" parent="W4c6wrDPUM8pkUNdPMfN-9">
          <mxGeometry x="0.565" y="2" relative="1" as="geometry">
            <mxPoint x="57.2" as="offset" />
          </mxGeometry>
        </mxCell>
        <mxCell id="W4c6wrDPUM8pkUNdPMfN-11" value="" style="endArrow=none;html=1;strokeWidth=1;" edge="1" parent="1">
          <mxGeometry width="50" height="50" relative="1" as="geometry">
            <mxPoint x="80" y="720" as="sourcePoint" />
            <mxPoint x="160" y="720" as="targetPoint" />
          </mxGeometry>
        </mxCell>
        <mxCell id="W4c6wrDPUM8pkUNdPMfN-13" value="Can have&amp;nbsp;" style="edgeLabel;html=1;align=center;verticalAlign=middle;resizable=0;points=[];" vertex="1" connectable="0" parent="W4c6wrDPUM8pkUNdPMfN-11">
          <mxGeometry x="0.435" y="1" relative="1" as="geometry">
            <mxPoint x="62.4" as="offset" />
          </mxGeometry>
        </mxCell>
        <mxCell id="W4c6wrDPUM8pkUNdPMfN-12" value="" style="endArrow=classic;html=1;strokeWidth=1;endFill=1;" edge="1" parent="1">
          <mxGeometry width="50" height="50" relative="1" as="geometry">
            <mxPoint x="80" y="800" as="sourcePoint" />
            <mxPoint x="160" y="800" as="targetPoint" />
            <Array as="points">
              <mxPoint x="120" y="800" />
            </Array>
          </mxGeometry>
        </mxCell>
        <mxCell id="W4c6wrDPUM8pkUNdPMfN-15" value="have only one" style="edgeLabel;html=1;align=center;verticalAlign=middle;resizable=0;points=[];" vertex="1" connectable="0" parent="W4c6wrDPUM8pkUNdPMfN-12">
          <mxGeometry x="0.215" relative="1" as="geometry">
            <mxPoint x="71.2" as="offset" />
          </mxGeometry>
        </mxCell>
        <mxCell id="W4c6wrDPUM8pkUNdPMfN-16" value="Strollin Server : diagram" style="whiteSpace=wrap;html=1;" vertex="1" parent="1">
          <mxGeometry x="332" y="5" width="120" height="60" as="geometry" />
        </mxCell>
      </root>
    </mxGraphModel>
  </diagram>
</mxfile>
